
<svg viewBox="70 0 370 370" xmlns="http://www.w3.org/2000/svg" xmlns:xlink="http://www.w3.org/1999/xlink"><linearGradient id="a" gradientTransform="matrix(1.823731 0 -.000217 1.823731 107.365055 37.507846)" gradientUnits="userSpaceOnUse" x1="27.5" x2="152" y1="3" y2="63.5"><stop offset=".1" stop-color="#76b3e1"/><stop offset=".3" stop-color="#dcf2fd"/><stop offset="1" stop-color="#76b3e1"/></linearGradient><linearGradient id="b" gradientTransform="matrix(1.823731 0 -.000217 1.823731 107.365055 37.507846)" gradientUnits="userSpaceOnUse" x1="95.8" x2="74" y1="32.6" y2="105.2"><stop offset="0" stop-color="#76b3e1"/><stop offset=".5" stop-color="#4377bb"/><stop offset="1" stop-color="#1f3b77"/></linearGradient><linearGradient id="c" gradientTransform="matrix(1.823731 0 -.000217 1.823731 107.365055 37.507846)" gradientUnits="userSpaceOnUse" x1="18.4" x2="144.3" y1="64.2" y2="149.8"><stop offset="0" stop-color="#315aa9"/><stop offset=".5" stop-color="#518ac8"/><stop offset="1" stop-color="#315aa9"/></linearGradient><linearGradient id="d" gradientTransform="matrix(1.823731 0 -.000217 1.823731 107.365055 37.507846)" gradientUnits="userSpaceOnUse" x1="75.2" x2="24.4" y1="74.5" y2="260.8"><stop offset="0" stop-color="#4377bb"/><stop offset=".5" stop-color="#1a336b"/><stop offset="1" stop-color="#1a336b"/></linearGradient><path d="m408.215 198.77h201.808v201.808h-201.808z" fill="none" transform="matrix(1 0 -.000119 1 -45.604092 -7.651174)"/><g><path d="m404.628 101.338s-96.649-71.126-171.426-54.712l-5.469 1.823c-10.943 3.647-20.061 9.118-25.535 16.414l-3.646 5.47-27.366 47.42 47.415 9.118c20.061 12.764 45.596 18.236 69.305 12.764l83.887 16.414z" fill="#76b3e1"/><path d="m404.628 101.338s-96.649-71.126-171.426-54.712l-5.469 1.823c-10.943 3.647-20.061 9.118-25.535 16.414l-3.646 5.47-27.366 47.42 47.415 9.118c20.061 12.764 45.596 18.236 69.305 12.764l83.887 16.414z" fill="url(#a)" opacity=".3"/><path d="m202.195 101.338-7.296 1.825c-31.005 9.118-40.127 38.296-23.719 63.828 18.236 23.709 56.529 36.472 87.534 27.358l113.079-38.3s-96.646-71.124-169.598-54.711z" fill="#518ac8"/><path d="m202.195 101.338-7.296 1.825c-31.005 9.118-40.127 38.296-23.719 63.828 18.236 23.709 56.529 36.472 87.534 27.358l113.079-38.3s-96.646-71.124-169.598-54.711z" fill="url(#b)" opacity=".3"/><path d="m351.728 183.407c-20.881-26.094-55.505-36.914-87.532-27.358l-113.078 36.472-36.482 63.837 204.255 34.649 36.48-65.657c7.296-12.764 5.474-27.353-3.643-41.946z" fill="url(#c)"/><path d="m315.248 247.235c-20.886-26.096-55.507-36.913-87.535-27.355l-113.077 36.474s96.649 72.95 171.426 54.714l5.47-1.824c31.004-9.12 41.95-38.297 23.716-62.005z" fill="url(#d)"/></g><path d="m89.68 194.036h201.808v201.808h-201.808z" fill="none" transform="matrix(1 0 -.000119 1 -45.604092 -7.651174)"/></svg>