<svg class="object-contain h-10 w-10 rounded-md" viewBox="0 0 24 24" xmlns="http://www.w3.org/2000/svg" xmlns:xlink="http://www.w3.org/1999/xlink"><clipPath id="a"><path d="m0 0h24v24h-24z"></path></clipPath><g clip-path="url(#a)"><path d="m10.354 21.125c-.87963.2285-1.8082.1817-2.66032-.1343s-1.58675-.8859-2.10469-1.6327c-.31809-.445-.54412-.9491-.66484-1.4826-.12071-.5335-.13369-1.0858-.03816-1.6244.03257-.1769.07735-.3513.134-.522l.105-.321.287.21c.66123.4857 1.40051.855 2.186 1.092l.208.063-.02.208c-.02497.2947.05509.5887.226.83.15586.2251.37704.3969.63367.4922.25664.0953.53635.1096.80133.0408.12132-.0322.23699-.0828.343-.15l5.59001-3.562c.1365-.0862.2536-.1999.3438-.3339.0902-.1339.1516-.2852.1802-.4441.0288-.1624.025-.3288-.0113-.4897-.0362-.1609-.1041-.3129-.1997-.4473-.156-.225-.3772-.3967-.6338-.492s-.5362-.1096-.8012-.041c-.1213.0322-.237.0828-.343.15l-2.133 1.36c-.3507.2232-.7335.3915-1.135.499-.87952.2286-1.80802.1819-2.66014-.1339-.85211-.3158-1.5868-.8855-2.10487-1.6321-.31809-.4452-.54405-.9495-.6646-1.4832s-.13326-1.0861-.0374-1.6248c.09479-.52788.29867-1.03017.59863-1.47477.29995-.44459.68938-.82171 1.14337-1.10723l5.58901-3.563c.3506-.2233.7334-.39158 1.135-.499.8796-.22855 1.8082-.18166 2.6603.13433s1.5868.88587 2.1047 1.63267c.3181.44502.5441.94907.6648 1.4826.1208.53353.1337 1.08579.0382 1.6244-.0327.17685-.0775.35126-.134.522l-.105.321-.286-.21c-.6614-.48628-1.4011-.85594-2.187-1.093l-.208-.063.02-.207c.025-.29499-.055-.58933-.226-.831-.156-.22489-.3772-.3965-.6339-.49163-.2566-.09514-.5362-.10923-.8011-.04037-.1213.03222-.237.0828-.343.15l-5.59001 3.562c-.13661.08614-.25377.19982-.34399.33378-.09022.13395-.15153.28524-.18001.44422-.0289.1624-.02513.3289.0111.4898.03623.1608.10419.3129.1999.4472.15595.225.37715.3967.63375.492s.53626.1096.80125.041c.1217-.0325.23771-.0834.34401-.151l2.132-1.36c.3507-.22302.7334-.39096 1.135-.498.8795-.22865 1.808-.18192 2.6601.13389s1.5868.88551 2.1049 1.63211c.3181.4452.544.9494.6646 1.4832.1205.5337.1333 1.0861.0374 1.6248-.0948.528-.2986 1.0305-.5986 1.4752-.2999.4448-.6894.8221-1.1434 1.1078l-5.589 3.562c-.3506.2233-.7334.3916-1.135.499zm10.358-17.95c-2.228-3.1900018-6.63-4.135002-9.812-2.107l-5.59001 3.562c-.7549.4751-1.40237 1.10248-1.90103 1.84203s-.83753 1.57501-.99497 2.45297c-.26672 1.4792-.03235 3.0051.666 4.336-.47866.7256-.80524 1.5407-.96 2.396-.15904.8956-.13766 1.814.06291 2.7013s.57628 1.7255 1.10509 2.4657c2.229 3.19 6.63 4.135 9.81201 2.108l5.59-3.562c.755-.475 1.4025-1.1024 1.9012-1.8419.4987-.7396.8375-1.5751.9948-2.4531.2668-1.4791.0328-3.0049-.665-4.336.478-.7257.8039-1.5408.958-2.396.1594-.89573.1383-1.81429-.0621-2.70175s-.576-1.72595-1.1049-2.46625z" fill="#ff3e00"></path></g></svg>