<svg class="object-contain h-10 w-10 rounded-md" viewBox="0 0 24 24" xmlns="http://www.w3.org/2000/svg" xmlns:xlink="http://www.w3.org/1999/xlink"><clipPath id="a"><path d="m0 0h24v24h-24z"></path></clipPath><g clip-path="url(#a)"><path clip-rule="evenodd" d="m.899999 0h22.200001c.497 0 .9.402943.9.9v22.2c0 .4971-.403.9-.9.9h-22.200001c-.497056 0-.899999-.4029-.899999-.9v-22.2c0-.497057.402943-.9.899999-.9zm12.441401 12.7684v-1.9684h-8.54141v1.9684h3.04944v8.7642h2.42757v-8.7642zm.9679 8.5328c.3914.1996.8544.3493 1.3889.4491.5346.0998 1.0979.1497 1.6902.1497.5772 0 1.1254-.0549 1.6449-.1647.5195-.1097.9749-.2907 1.3664-.5427.3914-.252.7014-.5812.9297-.9879.2284-.4067.3426-.9094.3426-1.5082 0-.4342-.0653-.8146-.1958-1.1414-.1304-.3269-.3186-.6176-.5646-.8721-.2459-.2544-.5408-.4827-.8846-.6848-.3438-.202-.7314-.3929-1.1631-.5726-.3162-.1298-.5998-.2558-.8507-.378-.251-.1222-.4643-.247-.6399-.3742-.1757-.1273-.3111-.262-.4065-.4042s-.143-.3031-.143-.4828c0-.1646.0426-.3131.1279-.4453.0854-.1322.2058-.2458.3614-.3406s.3463-.1683.5722-.2208c.2258-.0523.4767-.0785.7527-.0785.2008 0 .4129.0149.6362.0448.2233.03.448.0762.6738.1385.2259.0624.4455.1409.6588.2358.2132.0948.4102.2046.5909.3293v-2.2379c-.3664-.1398-.7666-.2433-1.2008-.3106-.4341-.0674-.9323-.1011-1.4944-.1011-.5721 0-1.1141.0611-1.6261.1834-.5119.1222-.9623.3131-1.3513.5726s-.6964.59-.9222.9917c-.2259.4017-.3388.882-.3388 1.4408 0 .7136.207 1.3224.6211 1.8263.4141.504 1.0427.9306 1.8858 1.2799.3313.1348.6399.267.9261.3968.286.1297.5332.2644.7414.4041.2083.1398.3727.2919.4932.4566.1204.1646.1807.3517.1807.5614 0 .1547-.0377.2981-.113.4303-.0753.1323-.1895.247-.3426.3443-.153.0973-.3437.1735-.572.2283-.2284.0549-.4957.0823-.8018.0823-.522 0-1.039-.091-1.5509-.2731s-.9862-.4554-1.4228-.8196z" fill="#3178c6" fill-rule="evenodd"></path></g></svg>